<svg xmlns="http://www.w3.org/2000/svg" version="1.1" xmlns:xlink="http://www.w3.org/1999/xlink" xmlns:svgjs="http://svgjs.com/svgjs" width="2560" height="1440" preserveAspectRatio="none" viewBox="0 0 2560 1440"><g mask="url(&quot;#SvgjsMask2540&quot;)" fill="none"><rect width="2560" height="1440" x="0" y="0" fill="url(#SvgjsLinearGradient2541)"></rect><path d="M2560 0L1529.51 0L2560 56.7z" fill="rgba(255, 255, 255, .1)"></path><path d="M1529.51 0L2560 56.7L2560 149.25L1185.23 0z" fill="rgba(255, 255, 255, .075)"></path><path d="M1185.23 0L2560 149.25L2560 395.57L577.85 0z" fill="rgba(255, 255, 255, .05)"></path><path d="M577.8499999999999 0L2560 395.57L2560 403.52L176.27999999999992 0z" fill="rgba(255, 255, 255, .025)"></path><path d="M0 1440L1087.96 1440L0 822z" fill="rgba(0, 0, 0, .1)"></path><path d="M0 822L1087.96 1440L1474.58 1440L0 418.26z" fill="rgba(0, 0, 0, .075)"></path><path d="M0 418.26L1474.58 1440L2117.97 1440L0 390.58z" fill="rgba(0, 0, 0, .05)"></path><path d="M0 390.5799999999999L2117.97 1440L2345.0299999999997 1440L0 227.49999999999991z" fill="rgba(0, 0, 0, .025)"></path></g><defs><mask id="SvgjsMask2540"><rect width="2560" height="1440" fill="#ffffff"></rect></mask><linearGradient x1="89.06%" y1="119.44%" x2="10.94%" y2="-19.44%" gradientUnits="userSpaceOnUse" id="SvgjsLinearGradient2541"><stop stop-color="rgba(0, 164, 211, 1)" offset="0"></stop><stop stop-color="rgba(0, 34, 186, 1)" offset="1"></stop></linearGradient></defs></svg>