<svg xmlns="http://www.w3.org/2000/svg" version="1.1" xmlns:xlink="http://www.w3.org/1999/xlink" xmlns:svgjs="http://svgjs.com/svgjs" width="2560" height="1440" preserveAspectRatio="none" viewBox="0 0 2560 1440"><g mask="url(&quot;#SvgjsMask2728&quot;)" fill="none"><rect width="2560" height="1440" x="0" y="0" fill="url(#SvgjsLinearGradient2729)"></rect><path d="M0 0L415.66 0L0 488.24z" fill="rgba(255, 255, 255, .1)"></path><path d="M0 488.24L415.66 0L1562.2900000000002 0L0 784.02z" fill="rgba(255, 255, 255, .075)"></path><path d="M0 784.02L1562.2900000000002 0L2150.01 0L0 890.64z" fill="rgba(255, 255, 255, .05)"></path><path d="M0 890.64L2150.01 0L2269.6800000000003 0L0 924.26z" fill="rgba(255, 255, 255, .025)"></path><path d="M2560 1440L2368.73 1440L2560 1027.01z" fill="rgba(0, 0, 0, .1)"></path><path d="M2560 1027.01L2368.73 1440L1863.82 1440L2560 532.71z" fill="rgba(0, 0, 0, .075)"></path><path d="M2560 532.71L1863.82 1440L1807.6 1440L2560 218.31000000000006z" fill="rgba(0, 0, 0, .05)"></path><path d="M2560 218.30999999999995L1807.6 1440L538.1599999999999 1440L2560 163.39999999999995z" fill="rgba(0, 0, 0, .025)"></path></g><defs><mask id="SvgjsMask2728"><rect width="2560" height="1440" fill="#ffffff"></rect></mask><linearGradient x1="89.06%" y1="-19.44%" x2="10.94%" y2="119.44%" gradientUnits="userSpaceOnUse" id="SvgjsLinearGradient2729"><stop stop-color="rgba(0, 0, 0, 1)" offset="0"></stop><stop stop-color="rgba(68, 68, 68, 1)" offset="1"></stop></linearGradient></defs></svg>