<svg xmlns="http://www.w3.org/2000/svg" version="1.1" xmlns:xlink="http://www.w3.org/1999/xlink" xmlns:svgjs="http://svgjs.com/svgjs" width="2560" height="1440" preserveAspectRatio="none" viewBox="0 0 1920 1080"><g mask="url(&quot;#SvgjsMask1032&quot;)" fill="none"><rect width="1920" height="1080" x="0" y="0" fill="url(#SvgjsLinearGradient1033)"></rect><path d="M1920 0L1142.73 0L1920 320.52z" fill="rgba(255, 255, 255, .1)"></path><path d="M1142.73 0L1920 320.52L1920 609.95L810.08 0z" fill="rgba(255, 255, 255, .075)"></path><path d="M810.0799999999999 0L1920 609.95L1920 897.96L528.9699999999999 0z" fill="rgba(255, 255, 255, .05)"></path><path d="M528.9699999999998 0L1920 897.96L1920 1009.8100000000001L378.30999999999983 0z" fill="rgba(255, 255, 255, .025)"></path><path d="M0 1080L542.09 1080L0 697.25z" fill="rgba(0, 0, 0, .1)"></path><path d="M0 697.25L542.09 1080L1149 1080L0 482.08000000000004z" fill="rgba(0, 0, 0, .075)"></path><path d="M0 482.08000000000004L1149 1080L1570.04 1080L0 253.93000000000004z" fill="rgba(0, 0, 0, .05)"></path><path d="M0 253.93000000000006L1570.04 1080L1635.1 1080L0 234.27000000000007z" fill="rgba(0, 0, 0, .025)"></path></g><defs><mask id="SvgjsMask1032"><rect width="1920" height="1080" fill="#ffffff"></rect></mask><linearGradient x1="10.94%" y1="-19.44%" x2="89.06%" y2="119.44%" gradientUnits="userSpaceOnUse" id="SvgjsLinearGradient1033"><stop stop-color="#0e2a47" offset="0"></stop><stop stop-color="rgba(0, 158, 50, 1)" offset="1"></stop></linearGradient></defs></svg>