<svg xmlns="http://www.w3.org/2000/svg" version="1.1" xmlns:xlink="http://www.w3.org/1999/xlink" xmlns:svgjs="http://svgjs.com/svgjs" width="1920" height="1080" preserveAspectRatio="none" viewBox="0 0 1920 1080"><g mask="url(&quot;#SvgjsMask2722&quot;)" fill="none"><rect width="1920" height="1080" x="0" y="0" fill="url(#SvgjsLinearGradient2723)"></rect><path d="M0 0L97.71 0L0 279.65z" fill="rgba(255, 255, 255, .1)"></path><path d="M0 279.65L97.71 0L903.62 0L0 549.98z" fill="rgba(255, 255, 255, .075)"></path><path d="M0 549.98L903.62 0L1512.3 0L0 569.49z" fill="rgba(255, 255, 255, .05)"></path><path d="M0 569.49L1512.3 0L1656.08 0L0 802.64z" fill="rgba(255, 255, 255, .025)"></path><path d="M1920 1080L1266.15 1080L1920 688.25z" fill="rgba(0, 0, 0, .1)"></path><path d="M1920 688.25L1266.15 1080L1239.75 1080L1920 422.48z" fill="rgba(0, 0, 0, .075)"></path><path d="M1920 422.48L1239.75 1080L597.79 1080L1920 318.05z" fill="rgba(0, 0, 0, .05)"></path><path d="M1920 318.04999999999995L597.79 1080L282.42999999999995 1080L1920 285.61999999999995z" fill="rgba(0, 0, 0, .025)"></path></g><defs><mask id="SvgjsMask2722"><rect width="1920" height="1080" fill="#ffffff"></rect></mask><linearGradient x1="10.94%" y1="-19.44%" x2="89.06%" y2="119.44%" gradientUnits="userSpaceOnUse" id="SvgjsLinearGradient2723"><stop stop-color="rgba(121, 121, 121, 1)" offset="0"></stop><stop stop-color="rgba(223, 0, 0, 1)" offset="1"></stop></linearGradient></defs></svg>